<?xml version="1.0" encoding="UTF-8"?>
<svg version="1.1" xmlns="http://www.w3.org/2000/svg" width="1720" height="300">
<path d="M0 0 C17.49 0 34.98 0 53 0 C54.30710938 3.61839844 55.61421875 7.23679688 56.9609375 10.96484375 C65.69178845 35.1211241 74.43909013 59.27062375 83.3125 83.375 C88.79956827 98.28134338 94.26655373 113.19447318 99.6875 128.125 C107.27973226 149.03559504 114.90701932 169.93331022 122.53882504 190.82948589 C123.03244095 192.18102643 123.52605078 193.53256919 124.01965427 194.88411427 C125.16251801 198.0134007 126.3054741 201.14265328 127.44862366 204.27183533 C129.97158523 211.17910826 132.48915254 218.088314 135 225 C140.14829937 211.99164631 145.00318392 198.88839162 149.76205444 185.73306274 C151.0356922 182.21387902 152.31291545 178.69601441 153.59106445 175.1784668 C157.6694718 163.95223768 161.74059658 152.72342729 165.79564095 141.48873615 C167.83864915 135.82959334 169.88731694 130.17251621 171.9394207 124.51666546 C173.17470946 121.11114272 174.4071943 117.70466682 175.63256836 114.29556274 C183.35134138 92.82861944 191.08535607 71.93555441 204 53 C204.39171387 52.42266113 204.78342773 51.84532227 205.18701172 51.25048828 C209.69023822 44.67207736 209.69023822 44.67207736 212 42 C212.66 42 213.32 42 214 42 C214.23332031 41.44441406 214.46664062 40.88882813 214.70703125 40.31640625 C225.50103949 20.97850025 252.54215185 8.47170679 272.78173828 2.59716797 C298.35626985 -4.28763329 326.77066017 -0.69725398 349.93896484 12.06835938 C357.80621888 16.67338245 365.05985055 22.09851237 372 28 C372.75796875 28.62390625 373.5159375 29.2478125 374.296875 29.890625 C389.64648905 42.91133209 400.69897926 60.85761399 409 79 C409.45890625 79.96808594 409.9178125 80.93617187 410.390625 81.93359375 C413.17238589 88.13973751 415.19543098 94.5518413 417.125 101.0625 C417.36686035 101.85809326 417.6087207 102.65368652 417.85791016 103.47338867 C422.23361801 118.82435552 423.55828959 134.35523257 423.4375 150.25 C423.43479095 151.09418488 423.43208191 151.93836975 423.42929077 152.80813599 C423.36291022 166.50788594 422.44793666 179.68353988 419 193 C418.81276367 193.7307373 418.62552734 194.46147461 418.43261719 195.21435547 C417.18615266 199.8998996 415.68473391 204.45513644 414 209 C413.75411133 209.67160156 413.50822266 210.34320313 413.25488281 211.03515625 C407.02191621 227.7711017 398.65420122 243.41195106 387 257 C386.53335937 257.54495117 386.06671875 258.08990234 385.5859375 258.65136719 C366.93589331 280.1562644 342.60510612 295.85259707 314 300 C298.2477134 300.88086446 282.02348833 301.3323875 267 296 C266.30165039 295.75862305 265.60330078 295.51724609 264.88378906 295.26855469 C243.82515557 287.79795512 219.94612443 272.3421767 208 253 C208.2016449 250.87423706 208.2016449 250.87423706 209.02514648 248.55419922 C209.32790497 247.67229919 209.63066345 246.79039917 209.94259644 245.8817749 C210.29153961 244.93078918 210.64048279 243.97980347 211 243 C211.34402863 242.01469299 211.68805725 241.02938599 212.04251099 240.01422119 C213.20383685 236.71142446 214.39719769 233.42157952 215.59765625 230.1328125 C216.25005531 228.33709305 216.25005531 228.33709305 216.91563416 226.50509644 C217.82951816 223.99182057 218.74448737 221.47897429 219.66137695 218.96679688 C220.83391672 215.7537493 222.00173176 212.53900827 223.16814518 209.32373238 C224.28808226 206.23838511 225.41176027 203.15440171 226.53515625 200.0703125 C226.9528981 198.91927032 227.37063995 197.76822815 227.80104065 196.58230591 C228.19162155 195.51374359 228.58220245 194.44518127 228.98461914 193.34423828 C229.49733116 191.93720139 229.49733116 191.93720139 230.020401 190.5017395 C230.90012662 188.25506068 231.87986302 186.1350674 233 184 C233.42796875 185.15886719 233.8559375 186.31773437 234.296875 187.51171875 C242.8572203 210.30088155 254.94262711 231.45861872 278 242 C290.98242594 247.46717546 304.78963831 247.9929333 318.08203125 243.25390625 C339.47765264 234.05980389 352.3700797 216.31483246 361.46484375 195.67578125 C371.24955021 170.54484824 372.16015672 141.89570546 365 116 C364.81276367 115.31131836 364.62552734 114.62263672 364.43261719 113.91308594 C360.5642132 100.12980887 353.86906875 88.18201539 345 77 C344.32324219 76.13375 343.64648438 75.2675 342.94921875 74.375 C333.62581631 63.19373492 320.44206118 55.9486766 306 54 C289.54424947 52.96404476 274.08504671 56.91158165 261.30761719 67.65698242 C249.96994568 77.84126246 242.2905108 90.39010301 235.91308594 104.08300781 C234.48621723 107.07866907 232.9149829 109.99875534 231.375 112.9375 C228.97159945 117.7576393 226.98907468 122.58186875 225.25390625 127.68359375 C223.06929007 133.98361631 220.8240652 140.25640523 218.50390625 146.5078125 C218.19450104 147.34215317 217.88509583 148.17649384 217.5663147 149.03611755 C216.91078794 150.80254779 216.25490379 152.56884542 215.59869385 154.33502197 C208.20595617 174.24015433 200.9014488 194.17715478 193.625 214.125 C193.13752956 215.46115374 192.65005194 216.79730487 192.16256714 218.13345337 C188.53400502 228.07933201 184.90733301 238.02589962 181.28082275 247.97252655 C178.31697926 256.10151814 175.3521366 264.23014342 172.38543701 272.35809326 C171.14746792 275.75092347 169.91087284 279.14425239 168.67431641 282.53759766 C167.93139125 284.57326998 167.18839434 286.60891612 166.4453125 288.64453125 C166.10794067 289.57150314 165.77056885 290.49847504 165.42297363 291.45353699 C165.11597534 292.29362808 164.80897705 293.13371918 164.49267578 293.99926758 C164.22673615 294.72857986 163.96079651 295.45789215 163.6867981 296.20930481 C163 298 163 298 162 300 C144.51 300 127.02 300 109 300 C104.50331126 291.00662252 104.50331126 291.00662252 103.39453125 287.72265625 C100.28866381 278.55934081 97.10137134 269.42881677 93.81640625 260.328125 C93.42641449 259.24638504 93.03642273 258.16464508 92.63461304 257.05012512 C88.49645918 245.58431746 84.31403162 234.13479498 80.125 222.6875 C79.30080129 220.43386032 78.47666548 218.18019764 77.65258789 215.92651367 C76.37603929 212.43546784 75.09943544 208.9444423 73.82258606 205.45350647 C70.93781155 197.56627251 68.05587547 189.67800661 65.17578125 181.7890625 C55.81013557 156.13290741 55.81013557 156.13290741 46.40234375 130.4921875 C45.83907127 128.96115135 45.83907127 128.96115135 45.26441956 127.39918518 C43.76046722 123.31160444 42.25645812 119.22404461 40.75222778 115.13656616 C34.88416479 99.18624514 29.08563464 83.21170048 23.32955933 67.22064209 C19.41020049 56.3347752 15.44601365 45.46835628 11.37890625 34.63671875 C11.00354736 33.63568115 10.62818848 32.63464355 10.24145508 31.60327148 C8.44475406 26.81481063 6.64045339 22.02943543 4.82373047 17.24853516 C4.1830642 15.54727734 3.54259089 13.84594684 2.90234375 12.14453125 C2.60638809 11.37396896 2.31043243 10.60340668 2.00550842 9.80949402 C0.68893005 6.2933627 0 3.80387365 0 0 Z " fill="#1B436C" transform="translate(160,0)"/>
<path d="M0 0 C0.98484375 -0.00128906 1.9696875 -0.00257812 2.984375 -0.00390625 C4.02078125 -0.00003906 5.0571875 0.00382812 6.125 0.0078125 C7.67960937 0.00201172 7.67960937 0.00201172 9.265625 -0.00390625 C10.25046875 -0.00261719 11.2353125 -0.00132813 12.25 0 C13.16007812 0.00112793 14.07015625 0.00225586 15.0078125 0.00341797 C17.125 0.1328125 17.125 0.1328125 18.125 1.1328125 C20.30537702 1.62391506 22.4947471 2.07530769 24.6875 2.5078125 C43.1080576 6.41801135 57.96864246 15.75277655 71.125 29.1328125 C71.98738281 29.99777344 72.84976562 30.86273438 73.73828125 31.75390625 C80.15899707 38.45337963 84.88241754 45.11156185 89.16894531 53.36035156 C90.0962474 55.07950711 91.12140081 56.74475049 92.1484375 58.40625 C101.26626882 73.67250397 106.08968954 93.38802367 106.43359375 111.1171875 C106.44876541 111.88228134 106.46393707 112.64737518 106.47956848 113.43565369 C106.88535389 138.60943691 104.77549836 163.10811602 92.3125 185.6328125 C91.96558105 186.26735352 91.61866211 186.90189453 91.26123047 187.55566406 C80.23141743 207.52108557 64.52660573 225.70190145 43.5625 235.5703125 C42.91571289 235.87557861 42.26892578 236.18084473 41.60253906 236.49536133 C30.08230137 241.63234262 19.2463711 243.92477407 6.625 243.8203125 C5.92834229 243.8182782 5.23168457 243.8162439 4.51391602 243.81414795 C-14.80200774 243.6712591 -31.52364896 238.01002469 -46.875 226.1328125 C-46.875 225.4728125 -46.875 224.8128125 -46.875 224.1328125 C-47.96941406 223.76929688 -47.96941406 223.76929688 -49.0859375 223.3984375 C-56.81725597 219.89010811 -62.55547252 211.50478684 -67.75 204.9453125 C-68.20197754 204.37586914 -68.65395508 203.80642578 -69.11962891 203.21972656 C-79.11246355 190.31060808 -87.31556699 173.00901371 -90.875 157.1328125 C-91.17019531 155.85019531 -91.46539063 154.56757813 -91.76953125 153.24609375 C-97.50861198 125.15648194 -95.4637225 93.39838867 -83.875 67.1328125 C-83.58109375 66.43462402 -83.2871875 65.73643555 -82.984375 65.01708984 C-78.56528736 54.54282227 -73.33565144 45.70727041 -65.875 37.1328125 C-65.15473633 36.2972583 -65.15473633 36.2972583 -64.41992188 35.44482422 C-48.54747973 17.19772401 -30.11458848 4.56063309 -5.875 1.1328125 C-4.22105883 -0.52112867 -2.27184587 0.00281567 0 0 Z M-21.875 54.1328125 C-23.3909375 55.1846875 -23.3909375 55.1846875 -24.9375 56.2578125 C-39.00870437 68.78316625 -45.68640887 86.1542026 -48.875 104.1328125 C-49.0493457 104.92534424 -49.22369141 105.71787598 -49.40332031 106.53442383 C-53.6792678 130.08975983 -48.67914164 154.538606 -35.75390625 174.390625 C-32.49126561 179.01629699 -29.1410379 183.38702313 -24.875 187.1328125 C-24.25367188 187.68453125 -23.63234375 188.23625 -22.9921875 188.8046875 C-14.20896209 196.17126365 -3.78159734 200.56436674 7.80078125 200.34375 C20.57875549 199.1840683 32.36104577 193.5041695 41.125 184.1328125 C48.95292909 174.68121515 54.9275449 165.26030766 58.3125 153.4453125 C58.69365967 152.13494019 58.69365967 152.13494019 59.08251953 150.7980957 C66.17397692 125.6546059 63.80212924 99.83800926 52.75390625 76.19921875 C43.98112908 60.66668128 32.17136595 50.53939252 15.125 45.1328125 C1.80644791 42.07577642 -10.91185537 46.39532309 -21.875 54.1328125 Z " fill="#145699" transform="translate(1254.875,27.8671875)"/>
<path d="M0 0 C1.07507812 -0.00128906 2.15015625 -0.00257812 3.2578125 -0.00390625 C4.38960937 -0.00003906 5.52140625 0.00382812 6.6875 0.0078125 C7.81929687 0.00394531 8.95109375 0.00007813 10.1171875 -0.00390625 C11.19226562 -0.00261719 12.26734375 -0.00132813 13.375 0 C14.36886719 0.00112793 15.36273437 0.00225586 16.38671875 0.00341797 C18.6875 0.1328125 18.6875 0.1328125 19.6875 1.1328125 C21.97304156 1.60125901 24.26637909 2.03182594 26.5625 2.4453125 C45.65377274 6.10922556 64.85323821 16.25018972 77.6875 31.1328125 C78.31785156 31.84566406 78.94820312 32.55851562 79.59765625 33.29296875 C95.78200549 52.47095485 102.03964088 73.45833253 101.91455078 98.27441406 C101.91398538 99.86237074 101.91430573 101.45032793 101.91543579 103.0382843 C101.91600528 107.3122776 101.90431693 111.58615668 101.89028788 115.86012363 C101.87771266 120.34039785 101.8766047 124.82067521 101.87423706 129.30096436 C101.86804213 137.76854752 101.85165843 146.23607851 101.83153808 154.70363879 C101.80911695 164.35064275 101.79817008 173.99764931 101.78814721 183.64467287 C101.76729026 203.47408826 101.73063909 223.30343221 101.6875 243.1328125 C87.1675 243.1328125 72.6475 243.1328125 57.6875 243.1328125 C57.66562622 236.09308105 57.66562622 236.09308105 57.64331055 228.91113281 C57.59292792 213.38861726 57.5264751 197.86620105 57.45178509 182.34378433 C57.40690056 172.93444187 57.3674691 163.52513663 57.34106445 154.11572266 C57.31802476 145.91042701 57.28456043 137.70524991 57.23879844 129.5000484 C57.21494647 125.15912566 57.19616528 120.81831974 57.18988609 116.47733307 C57.18379869 112.3831293 57.16366849 108.28922411 57.13322449 104.1951313 C57.12450241 102.70051466 57.12070944 101.20585891 57.12249184 99.71121788 C57.13574345 83.45706671 54.15025303 71.18566996 43.125 58.8828125 C33.04984221 49.42885904 18.40934244 44.78266013 4.75830078 44.99682617 C1.19295074 45.23095727 -2.21693167 45.93156233 -5.6875 46.7578125 C-6.42846924 46.9338501 -7.16943848 47.1098877 -7.93286133 47.29125977 C-14.12545074 48.87610269 -19.16706905 51.3038883 -24.3125 55.1328125 C-25.364375 55.8753125 -26.41625 56.6178125 -27.5 57.3828125 C-35.94299178 65.63818224 -42.90835128 77.19335732 -43.4511652 89.19997883 C-43.45761775 90.35314185 -43.4640703 91.50630487 -43.47071838 92.69441223 C-43.47565636 93.33980208 -43.48059434 93.98519192 -43.48568195 94.65013903 C-43.50099225 96.80427315 -43.50939992 98.95837761 -43.51782227 101.11254883 C-43.52740588 102.66006733 -43.53741625 104.20758324 -43.54782104 105.75509644 C-43.57482376 109.95093093 -43.59585838 114.14677661 -43.61582303 118.3426497 C-43.63771119 122.7295677 -43.66508603 127.11645138 -43.69187927 131.50334167 C-43.7417679 139.8082007 -43.78672093 148.11307881 -43.82990164 156.41797513 C-43.87930676 165.87379839 -43.93421274 175.32958721 -43.98958123 184.78537714 C-44.10334249 204.23449169 -44.20946811 223.68363795 -44.3125 243.1328125 C-58.5025 243.1328125 -72.6925 243.1328125 -87.3125 243.1328125 C-87.40299555 221.87854039 -87.47659529 200.62442566 -87.51974869 179.37000942 C-87.54032326 169.49993908 -87.56834561 159.62999746 -87.61425781 149.76000977 C-87.65428256 141.15153142 -87.67996986 132.54314635 -87.68885398 123.93457752 C-87.69404239 119.38163099 -87.70612906 114.82895118 -87.73542023 110.27609062 C-87.76283727 105.97918436 -87.7708927 101.68265133 -87.76493073 97.38566589 C-87.76601934 95.8197024 -87.77381527 94.25372469 -87.7893219 92.6878376 C-87.92089538 78.69955294 -85.402839 66.22227502 -79.25 53.5078125 C-78.87004883 52.71221924 -78.49009766 51.91662598 -78.09863281 51.09692383 C-74.2376411 43.38349619 -69.17597239 37.4138352 -63.3125 31.1328125 C-62.49652344 30.11574219 -61.68054687 29.09867188 -60.83984375 28.05078125 C-58.29910567 25.11734795 -55.77884975 23.003801 -52.625 20.7578125 C-51.67238281 20.06945312 -50.71976563 19.38109375 -49.73828125 18.671875 C-47.3125 17.1328125 -47.3125 17.1328125 -45.3125 17.1328125 C-45.3125 16.4728125 -45.3125 15.8128125 -45.3125 15.1328125 C-33.380477 8.33337478 -22.05686186 3.64530776 -8.359375 1.52734375 C-0.43791256 0.00049698 -0.43791256 0.00049698 0 0 Z " fill="#145799" transform="translate(1458.3125,27.8671875)"/>
<path d="M0 0 C14.19 0 28.38 0 43 0 C45.475 7.425 45.475 7.425 48 15 C48.9790674 17.71597063 49.97416226 20.4263473 51 23.125 C51.24854736 23.78258301 51.49709473 24.44016602 51.75317383 25.11767578 C52.94659745 28.26794916 54.16004388 31.40935167 55.38671875 34.546875 C55.81597656 35.64515625 56.24523437 36.7434375 56.6875 37.875 C57.06261719 38.82117188 57.43773437 39.76734375 57.82421875 40.7421875 C58.75026919 43.30805483 59.53472851 45.82667829 60.28125 48.4453125 C62.14627139 54.76451335 64.58986114 60.85272102 67.01159668 66.97372437 C70.90263908 76.8180142 74.69383368 86.65980741 77.90673828 96.75 C80.01322964 103.27373045 82.56477659 109.60115224 85.19824219 115.9284668 C87.1930085 120.76823593 88.8349468 125.60643477 90.29174805 130.63378906 C91.30937575 134.03359868 92.54551819 137.30920738 93.8125 140.625 C94.3385938 142.01039687 94.8646339 143.39581413 95.390625 144.78125 C95.65681641 145.47863281 95.92300781 146.17601562 96.19726562 146.89453125 C97.49595486 150.30082565 98.78049103 153.7123984 100.0625 157.125 C100.30871094 157.77952148 100.55492187 158.43404297 100.80859375 159.10839844 C102.94802223 164.81637099 104.99592074 170.55475214 107.01953125 176.3046875 C107.91362492 178.9226736 107.91362492 178.9226736 109 181 C113.91001383 167.87993164 113.91001383 167.87993164 118.4375 154.625 C120.7436571 147.5767119 123.36469642 140.66710187 126.05834961 133.75830078 C127.7820905 129.31129917 129.39556816 124.85620156 130.87109375 120.3203125 C133.51550906 112.27750024 136.67347788 104.43409611 139.79101562 96.56616211 C142.876073 88.76644044 145.70838637 80.96977961 148.1015625 72.9230957 C149.36812986 68.80227749 150.89762067 64.81232545 152.5 60.8125 C152.80333252 60.04204346 153.10666504 59.27158691 153.41918945 58.4777832 C154.97532642 54.53354409 156.57211617 50.60783863 158.1875 46.6875 C159.5821087 43.23307175 160.69718756 39.7606816 161.75 36.1875 C164.34784788 27.4935071 167.6984601 19.08066141 170.98852539 10.62963867 C172.3481136 7.09497185 173.67025007 3.54599983 175 0 C189.19 0 203.38 0 218 0 C218 5.55546309 217.51429254 7.94958758 215.515625 12.91015625 C215.25875916 13.5589122 215.00189331 14.20766815 214.73724365 14.87608337 C213.91775107 16.94220373 213.08490599 19.00256539 212.25 21.0625 C211.16528755 23.75912611 210.08720189 26.45828361 209.015625 29.16015625 C208.62064316 30.15472588 208.62064316 30.15472588 208.21768188 31.16938782 C206.17283594 36.39134744 204.50473497 41.68514945 202.91210938 47.06274414 C201.57090164 51.38182076 199.87100927 55.51941144 198.125 59.6875 C195.56398699 65.93948888 193.1885279 72.19169172 191.125 78.625 C188.2981088 87.42552982 184.95640115 96.00479252 181.60205078 104.61572266 C178.99693435 111.32962597 176.60904526 118.04168681 174.41015625 124.8984375 C172.10301628 131.82166127 169.33361345 138.59228132 166.65234375 145.37695312 C164.11987228 151.84662634 161.93906363 158.33594174 159.94506836 164.99023438 C158.63494713 169.16258634 157.00720277 173.15969395 155.3125 177.1875 C152.11436319 184.97469492 149.2691113 192.84191907 146.5625 200.8125 C142.68510279 212.22411607 138.41911712 223.44404311 133.91040039 234.62011719 C132.85390608 237.38190494 131.93507496 240.19477512 131 243 C116.48 243 101.96 243 87 243 C84.13495566 235.83738914 81.27036611 228.67532024 78.4375 221.5 C77.85838867 220.04787109 77.85838867 220.04787109 77.26757812 218.56640625 C75.17526848 213.25543287 73.34308533 207.96060521 71.75756836 202.47851562 C70.4106028 198.07168535 68.72765404 193.79451157 67.0625 189.5 C66.72798828 188.62730469 66.39347656 187.75460938 66.04882812 186.85546875 C64.35530021 182.45033833 62.62327882 178.06408046 60.84765625 173.69140625 C59.48886939 170.30719533 58.33057286 166.96051864 57.375 163.4375 C55.36417427 156.67599833 52.72490303 150.21614999 50.0625 143.6875 C46.78083217 135.62906432 43.85975827 127.67217699 41.3984375 119.328125 C39.25060327 112.39206126 36.44159429 105.67710296 33.79736328 98.91967773 C30.79874793 91.20791704 28.09341969 83.44853163 25.55224609 75.57617188 C23.25858469 68.5609047 20.59424183 61.73056393 17.75146484 54.92041016 C16.17741683 51.11612531 14.77355213 47.36157766 13.65234375 43.3984375 C12.37774751 38.99120685 10.78165173 34.74580481 9.08203125 30.48828125 C8.81818634 29.82502335 8.55434143 29.16176544 8.28250122 28.47840881 C7.18355156 25.72351582 6.08034417 22.97053691 4.9621582 20.22338867 C4.13714176 18.19083296 3.3273734 16.15271275 2.51953125 14.11328125 C2.03589111 12.91485596 1.55225098 11.71643066 1.05395508 10.48168945 C0 7 0 7 0 0 Z " fill="#1E2D3C" transform="translate(638,28)"/>
<path d="M0 0 C14.52 0 29.04 0 44 0 C44.33 13.86 44.66 27.72 45 42 C63.15 42 81.3 42 100 42 C100 56.52 100 71.04 100 86 C81.19 86 62.38 86 43 86 C43.0825 95.36375 43.165 104.7275 43.25 114.375 C43.27368652 118.74951416 43.27368652 118.74951416 43.29785156 123.21240234 C43.51809665 144.82664011 44.60161593 166.08842419 59.9375 182.875 C71.46850375 193.54196396 84.51789475 196.55953217 100 200 C100 214.19 100 228.38 100 243 C80.21959081 243 80.21959081 243 73 240.5625 C72.17314697 240.29808105 71.34629395 240.03366211 70.49438477 239.76123047 C40.80735802 229.77376178 21.06649635 209.28872033 7 182 C4.68767639 177.13652123 3.28449986 172.47396794 2.375 167.1875 C2.25382812 166.53974609 2.13265625 165.89199219 2.0078125 165.22460938 C0.14496074 154.88780697 -0.14199757 144.67342584 -0.11352539 134.18701172 C-0.11324278 132.71757509 -0.11340269 131.24813833 -0.1139679 129.77870178 C-0.114253 125.81866386 -0.10840292 121.85865667 -0.10139394 117.89862585 C-0.09511237 113.74932355 -0.09455282 109.60002043 -0.09336853 105.45071411 C-0.09026931 97.60640364 -0.08207504 89.76210723 -0.07201904 81.91780293 C-0.06081399 72.98183005 -0.05533641 64.04585647 -0.05032361 55.1098783 C-0.03989116 36.7399093 -0.02156332 18.36995954 0 0 Z " fill="#1F2E3D" transform="translate(1029,28)"/>
<path d="M0 0 C-0.33 14.52 -0.66 29.04 -1 44 C-5.95 44.99 -10.9 45.98 -16 47 C-32.78270316 52.22480381 -42.75185305 60.82483786 -51 76 C-51.45117188 76.82757813 -51.90234375 77.65515625 -52.3671875 78.5078125 C-57.32993845 88.61443671 -57.30244011 99.71552618 -57.31884766 110.74291992 C-57.32816657 112.19280545 -57.33833809 113.6426857 -57.34928894 115.09255981 C-57.37638203 118.99466545 -57.39167628 122.89673541 -57.40471697 126.7989099 C-57.42043897 130.88952544 -57.44719984 134.98006909 -57.4727478 139.07063293 C-57.51937607 146.80154502 -57.55619694 154.53247087 -57.58942068 162.26345092 C-57.62775537 171.0713219 -57.67713549 179.87912038 -57.72740483 188.68693006 C-57.8304872 206.79123963 -57.91836635 224.89558013 -58 243 C-72.19 243 -86.38 243 -101 243 C-101.09059082 223.10137768 -101.16415013 203.20292452 -101.20724869 183.30414772 C-101.22779953 174.06304115 -101.25577555 164.82207261 -101.30175781 155.58105469 C-101.34185625 147.51860241 -101.36748702 139.45625019 -101.37635398 131.39370096 C-101.38153015 127.13184417 -101.39353625 122.8702734 -101.42292023 118.60850906 C-101.56232401 97.56626391 -101.58789222 77.98079351 -92.3125 58.5625 C-91.87969727 57.6329248 -91.44689453 56.70334961 -91.00097656 55.74560547 C-87.51609343 48.51821675 -83.45003542 42.89536905 -78 37 C-77.02535817 35.63651143 -76.0658221 34.26204058 -75.125 32.875 C-68.26713744 23.66855437 -57.81804659 17.58837068 -48 12 C-47.02160156 11.44183594 -46.04320312 10.88367187 -45.03515625 10.30859375 C-37.30597513 6.16907259 -29.48534862 3.98755914 -21 2 C-20.1646875 1.773125 -19.329375 1.54625 -18.46875 1.3125 C-11.96024451 -0.385371 -7.23023444 0 0 0 Z " fill="#1F2E3D" transform="translate(1019,28)"/>
<path d="M0 0 C14.19 0 28.38 0 43 0 C43 80.19 43 160.38 43 243 C28.81 243 14.62 243 0 243 C0 162.81 0 82.62 0 0 Z " fill="#1E2D3C" transform="translate(865,28)"/>
<path d="M0 0 C0.66 0 1.32 0 2 0 C2 14.52 2 29.04 2 44 C1.34 44 0.68 44 0 44 C0 43.34 0 42.68 0 42 C-17.82 42 -35.64 42 -54 42 C-54 41.67 -54 41.34 -54 41 C-36.18 41 -18.36 41 0 41 C0 27.47 0 13.94 0 0 Z " fill="#172535" transform="translate(1127,70)"/>
<path d="" fill="#14579C" transform="translate(0,0)"/>
</svg>
